<svg width="80" height="80" viewBox="0 0 80 80" fill="none" xmlns="http://www.w3.org/2000/svg">
<path d="M13.2235 10.8978C13.6524 9.29739 15.2974 8.34764 16.8978 8.77646L74.8533 24.3056C76.4538 24.7344 77.4035 26.3794 76.9746 27.9798L66.1042 68.5487C65.6754 70.1492 64.0305 71.0989 62.43 70.67L4.47446 55.1409C2.87408 54.7121 1.92431 53.0671 2.35314 51.4667L13.2235 10.8978ZM45.6675 28.9086L44.1146 34.7042L61.5013 39.3629L63.0542 33.5673L45.6675 28.9086ZM57.0506 44.382L42.5617 40.4997L41.0088 46.2953L55.4976 50.1775L57.0506 44.382ZM36.8701 32.763C37.9422 28.762 35.5678 24.6495 31.5668 23.5774C27.5659 22.5054 23.4533 24.8797 22.3813 28.8807C21.3092 32.8817 23.6836 36.9942 27.6846 38.0663C31.6855 39.1384 35.7981 36.764 36.8701 32.763ZM26.9081 40.9641C21.3067 39.4632 15.5492 42.7873 14.0483 48.3887L34.3327 53.8239C35.8336 48.2225 32.5095 42.465 26.9081 40.9641Z" fill="#091851"/>
</svg>
