<svg width="80" height="80" viewBox="0 0 80 80" fill="none" xmlns="http://www.w3.org/2000/svg">
<path d="M44.3938 22.9904L60.2275 10.6753C61.5037 9.68274 63.3191 9.79577 64.4623 10.939L74.0609 20.5375C75.2044 21.6807 75.3172 23.4963 74.3247 24.7724L62.0128 40.6019C62.9524 44.4113 62.971 48.505 61.8836 52.5628C59.0046 63.3077 49.2845 70.3889 38.6652 70.3889C27.4401 70.3889 13.0143 65.5742 5 60.7656C17.7581 51.1484 14.7685 45.3454 16.22 39.9284C19.6131 27.2654 31.7429 19.8691 44.3938 22.9904ZM55.3346 29.0126C55.5456 29.216 55.7527 29.4231 55.9556 29.6336L59.5925 33.2706L67.5263 23.07L61.9301 17.4736L51.7295 25.4074L55.3346 29.0126Z" fill="#091851"/>
</svg>
