<svg width="80" height="80" viewBox="0 0 80 80" fill="none" xmlns="http://www.w3.org/2000/svg">
<path d="M37.4634 7.21526C31.6753 5.66434 25.7258 9.09926 24.1749 14.8874C24.0304 15.4268 23.9292 15.9677 23.8693 16.5063C18.5515 15.8044 13.4083 19.1367 11.9825 24.4578C11.1967 27.3902 11.6908 30.3642 13.1222 32.7866C10.6713 34.1688 8.75649 36.4973 7.97076 39.4297C6.84604 43.6272 8.34247 47.907 11.4572 50.5353C11.3427 50.8551 11.2405 51.1817 11.1513 51.5147C9.37887 58.1295 13.3045 64.929 19.9194 66.7015C23.4968 67.66 27.1282 66.952 29.9891 65.0535L44.1065 12.3667C42.7243 9.91581 40.3959 8.00103 37.4634 7.21526ZM50.0952 13.9714L35.9778 66.6582C37.5061 69.7328 40.297 72.1617 43.8744 73.1202C50.4893 74.8927 57.2888 70.9669 59.0612 64.3521C59.1505 64.0191 59.2252 63.6851 59.2861 63.351C63.2976 62.6322 66.7334 59.674 67.8582 55.4765C68.6439 52.5441 68.1499 49.5702 66.7184 47.1477C69.1694 45.7655 71.0841 43.437 71.8699 40.5046C73.2957 35.1835 70.5075 29.726 65.5514 27.675C65.7688 27.1786 65.9516 26.6596 66.0961 26.1201C67.647 20.332 64.2121 14.3826 58.424 12.8316C55.4916 12.0459 52.5177 12.5399 50.0952 13.9714Z" fill="#091851"/>
</svg>
