<svg width="200" height="200" viewBox="0 0 200 200" fill="none" xmlns="http://www.w3.org/2000/svg">
<path d="M145.862 113.53H137.264C137.264 118.93 137.264 126.763 133.464 126.763C129.498 126.763 129.498 119.93 129.498 115.164V83.0323C129.498 77.5326 129.498 71.4329 133.464 71.4329C137.517 71.4329 137.264 79.3658 137.264 83.0323H145.929C145.995 78.0325 145.462 64.1334 133.464 64.1334C121.333 64.1334 120.844 76.9771 120.8 83.0323V115.164C120.8 123.63 121.9 136.129 133.464 135.862C144.626 135.605 145.862 124.763 145.862 113.53Z" fill="#F5F6FA"/>
<path d="M77.3333 65.2V134.8H86.2666V101.133H86.3333L92.1999 134.8H94.7333V108.6H94.3999L85.2666 65.2H77.3333Z" fill="#F5F6FA"/>
<path d="M112.133 65.2V134.8H103.2V101.133H103.133L97.2666 134.8H94.7333V108.6H95.0666L104.2 65.2H112.133Z" fill="#F5F6FA"/>
<path d="M25.8505 110.781L24.2039 112.883C24.1951 112.895 24.1817 112.901 24.1676 112.901H21.8147C21.2542 112.901 20.7999 112.447 20.7999 111.887V97.0961C20.7999 96.5351 21.2545 96.0807 21.8159 96.0822C24.2696 96.0884 27.7834 96.0971 29.4892 96.1008C29.8003 96.1015 29.9825 96.5642 29.8244 96.8318C29.4501 97.4655 29.2709 98.2927 29.2867 99.0982C29.2867 100.043 29.6788 101.287 31.3853 102.094C33.5439 103.108 35.9285 102.516 36.851 102.094L43.0122 98.6437C43.0902 98.6 43.186 98.6158 43.2427 98.6848C47.5255 103.892 55.9823 114.159 56.4767 114.745C57.0994 115.735 56.8918 117.072 55.9694 117.786C54.6753 118.723 53.5108 118.214 52.6846 117.491C52.6537 117.464 52.6047 117.487 52.6056 117.528C52.631 118.672 52.3479 119.233 51.5681 119.857C51.5658 119.859 51.5631 119.861 51.5604 119.862C50.3068 120.509 49.3792 120.222 48.4606 119.38C48.4308 119.353 48.382 119.374 48.3819 119.415C48.3806 120.307 48.3449 120.996 47.4134 121.75C46.315 122.452 45.0073 122.13 44.2479 121.321C44.2159 121.287 44.1544 121.315 44.1593 121.361C44.2973 122.67 43.7035 123.219 43.2161 123.639C42.155 124.394 41.037 123.984 40.5754 123.664C40.5556 123.65 40.5513 123.623 40.5639 123.602C42.7228 120.087 39.7115 117.124 37.9155 117.095C37.8987 117.095 37.8838 117.086 37.8757 117.071C37.5086 116.412 36.9553 115.669 35.5586 115.235C35.5449 115.231 35.5339 115.221 35.529 115.208C35.3602 114.74 34.84 113.044 32.7707 112.47C32.7556 112.466 32.743 112.454 32.7382 112.439C31.5745 108.8 27.4612 108.827 25.8505 110.781Z" fill="#F5F6FA"/>
<path d="M36.5588 119.284C38.0457 118.579 40.2963 120.208 38.7421 122.648L38.4467 123.034C38.4438 123.038 38.4405 123.042 38.437 123.045C36.8886 124.519 35.0667 123.158 34.9229 121.947C34.9148 121.878 34.8396 121.834 34.7766 121.862C32.9824 122.677 31.6298 121.071 31.7455 119.828C31.7528 119.749 31.6682 119.685 31.5957 119.716C29.8755 120.458 28.3638 118.869 28.5867 117.487C28.6001 117.404 28.5069 117.331 28.4308 117.367C26.3753 118.334 24.6384 115.893 25.6199 114.422L27.3957 112.233C28.9761 110.631 31.5235 112.121 30.641 114.465C30.6097 114.548 30.7022 114.636 30.7843 114.603C32.4387 113.926 34.1157 115.169 33.5376 117.157C33.5168 117.229 33.5826 117.299 33.655 117.282C35.6443 116.822 36.4027 118.229 36.401 119.184C36.4009 119.262 36.4888 119.317 36.5588 119.284Z" fill="#F5F6FA"/>
<path d="M44.266 96.608L58.3606 113.673C58.4915 113.832 58.7266 113.853 58.8836 113.72L59.198 113.454L59.6895 113.093C59.8796 112.953 60.1094 112.878 60.3453 112.878H63.1185C63.679 112.878 64.1333 112.424 64.1333 111.864V97.1165C64.1333 96.5566 63.679 96.1026 63.1185 96.1026H60.0157C59.9935 96.1026 59.9725 96.099 59.9517 96.0912C56.5318 94.803 49.0096 91.9746 46.0296 90.8718C43.0408 89.8948 40.341 91.2636 39.3648 92.0701C37.1278 93.7676 32.5108 97.2686 31.9388 97.6926C31.1317 98.291 31.2008 99.3711 31.6851 99.8126C32.9997 101.011 35.1675 100.573 36.113 100.135L42.8707 96.3474C43.3377 96.0856 43.9252 96.1954 44.266 96.608Z" fill="#F5F6FA"/>
<path d="M179.1 83.0667H170.378C170.289 79.1778 170.644 71.4334 166.35 71.4334C162.056 71.4334 162.166 76.3539 162.222 78.8321L162.222 78.8334V86.7C162.222 90.2 163.62 91.7712 166.083 93.7334C167.06 94.5111 169.579 96.5517 173.474 99.3C177.369 102.048 179.2 107.7 179.2 110.067V123.2C179.2 128.4 176.57 135.733 166.183 135.733C153.054 135.733 153.366 121.433 153.366 113.633H162.188V119.167C162.188 121.833 162.721 126.8 166.183 126.8C169.646 126.8 170.245 123.933 170.245 121.833V112.233C170.245 107.94 166.683 104.9 164.885 103.5C163.601 102.5 162.191 101.467 158.826 98.9667C154.698 95.9 153.267 91.0667 153.267 86.9667V78.8334C153.267 69.2334 157.894 64.3334 166.283 64.3334C173.807 64.3334 179.5 68.3667 179.1 83.0667Z" fill="#F5F6FA"/>
</svg>
