<svg width="36" height="28" viewBox="0 0 36 28" fill="none" xmlns="http://www.w3.org/2000/svg">
<path d="M4.19585 16.9067L2.8279 18.6621C2.82064 18.6714 2.80951 18.6768 2.79772 18.6768H0.843002C0.377425 18.6768 0 18.2978 0 17.8302V5.4798C0 5.01139 0.377659 4.63201 0.844075 4.63319C2.88252 4.63837 5.80164 4.64566 7.2188 4.64877C7.47719 4.64934 7.62862 5.03568 7.49728 5.25915C7.18633 5.78823 7.03743 6.47895 7.05056 7.15158C7.05056 7.94046 7.37627 8.97946 8.79404 9.65289C10.5873 10.4995 12.5684 10.0056 13.3348 9.65289L18.4533 6.77203C18.5181 6.73558 18.5977 6.74873 18.6448 6.80634C22.2028 11.1547 29.2284 19.7272 29.6392 20.2161C30.1565 21.0434 29.984 22.1594 29.2177 22.7559C28.1426 23.5377 27.1752 23.1129 26.4888 22.5095C26.4632 22.487 26.4225 22.506 26.4232 22.5402C26.4442 23.4958 26.2091 23.9639 25.5613 24.4851C25.5593 24.4867 25.5571 24.4882 25.5549 24.4893C24.5134 25.0295 23.7428 24.7897 22.9797 24.0871C22.9549 24.0642 22.9143 24.0818 22.9143 24.1156C22.9131 24.8604 22.8835 25.4362 22.1096 26.0653C21.1971 26.6518 20.1108 26.3828 19.4798 25.7074C19.4533 25.679 19.4022 25.7023 19.4062 25.7411C19.5209 26.8341 19.0276 27.2919 18.6227 27.643C17.7412 28.2732 16.8123 27.9308 16.4289 27.6636C16.4124 27.6521 16.4088 27.6292 16.4193 27.6121C18.2128 24.6772 15.7111 22.2033 14.2191 22.1788C14.2052 22.1786 14.1928 22.1711 14.186 22.1589C13.881 21.6086 13.4214 20.9879 12.2611 20.6258C12.2496 20.6223 12.2405 20.6143 12.2365 20.603C12.0962 20.2125 11.6641 18.7963 9.94495 18.3169C9.93237 18.3134 9.92195 18.3033 9.91797 18.2908C8.95116 15.2521 5.53399 15.2749 4.19585 16.9067Z" fill="#F5F6FA"/>
<path d="M13.092 24.0062C14.3273 23.418 16.197 24.7779 14.9058 26.8155L14.6604 27.1379C14.658 27.1411 14.6552 27.1441 14.6524 27.1469C13.366 28.3775 11.8524 27.2409 11.7329 26.2298C11.7262 26.1725 11.6637 26.1355 11.6114 26.1594C10.1208 26.8398 8.99712 25.4985 9.09327 24.4607C9.09934 24.3951 9.02903 24.3415 8.96884 24.3675C7.53974 24.9867 6.28382 23.6604 6.46903 22.5059C6.48015 22.4366 6.40275 22.3756 6.33952 22.4055C4.63182 23.2131 3.18891 21.1749 4.00427 19.9466L5.47953 18.1188C6.79253 16.7817 8.90879 18.0259 8.17566 19.9826C8.14968 20.0519 8.22647 20.1258 8.29474 20.0977C9.66912 19.5323 11.0624 20.5703 10.582 22.2309C10.5648 22.2904 10.6195 22.3487 10.6796 22.3347C12.3323 21.9508 12.9623 23.1252 12.9609 23.9231C12.9608 23.9877 13.0338 24.0339 13.092 24.0062Z" fill="#F5F6FA"/>
<path d="M19.4949 5.07228L31.2043 19.3215C31.313 19.4538 31.5084 19.4714 31.6387 19.3606L31.8999 19.1386L32.3083 18.8371C32.4662 18.7205 32.6571 18.6576 32.8531 18.6576H35.157C35.6226 18.6576 36 18.2786 36 17.811V5.49688C36 5.02931 35.6226 4.65028 35.157 4.65028H32.5793C32.5608 4.65028 32.5434 4.64725 32.5261 4.64071C29.6849 3.56513 23.4357 1.20343 20.9601 0.282616C18.4771 -0.533194 16.2342 0.60971 15.4231 1.28314C13.5647 2.70054 9.72899 5.62386 9.25385 5.97789C8.58329 6.47753 8.64076 7.37943 9.0431 7.74805C10.1352 8.74857 11.9361 8.383 12.7217 8.01742L18.3357 4.85465C18.7237 4.63609 19.2118 4.72772 19.4949 5.07228Z" fill="#F5F6FA"/>
</svg>
