<svg width="80" height="80" viewBox="0 0 80 80" fill="none" xmlns="http://www.w3.org/2000/svg">
<path d="M3.5579 55.8986L63.4453 71.9454L61.8406 77.9341L1.95322 61.8873L3.5579 55.8986ZM15.9653 33.5483L21.9541 35.153L16.3377 56.1136L10.349 54.5089L15.9653 33.5483ZM30.9372 37.56L36.9259 39.1647L31.3096 60.1253L25.3208 58.5206L30.9372 37.56ZM42.9147 40.7694L48.9034 42.374L43.287 63.3346L37.2983 61.73L42.9147 40.7694ZM57.8865 44.7811L63.8753 46.3857L58.2589 67.3463L52.2702 65.7417L57.8865 44.7811ZM13.9883 16.9718L47.9437 10.0233L73.8757 33.0186L70.6663 44.996L10.7789 28.9493L13.9883 16.9718ZM43.1297 27.9895C44.7835 28.4327 46.4833 27.4512 46.9264 25.7975C47.3695 24.1438 46.3881 22.4439 44.7343 22.0008C43.0806 21.5577 41.3808 22.5391 40.9376 24.1928C40.4945 25.8466 41.4759 27.5464 43.1297 27.9895Z" fill="#091851"/>
</svg>
