<svg width="80" height="80" viewBox="0 0 80 80" fill="none" xmlns="http://www.w3.org/2000/svg">
<path d="M33.9701 15.414C35.3424 10.2928 40.6064 7.25356 45.7277 8.6258C50.8491 9.99808 53.8882 15.2621 52.5159 20.3833C52.2255 21.4672 51.7607 22.4577 51.1601 23.3329L70.2335 28.4436C71.9406 28.9011 72.9536 30.6557 72.4962 32.3628L69.9072 42.0252C69.6511 42.9808 68.9675 43.7642 68.0555 44.1473C67.1431 44.5305 66.1052 44.47 65.2435 43.9841C64.5563 43.5962 63.8066 43.286 63.0014 43.0702C57.88 41.698 52.6161 44.737 51.2439 49.8585C49.8716 54.9799 52.9107 60.2437 58.0321 61.616C58.8373 61.8318 59.6417 61.938 60.4307 61.9457C61.4199 61.9556 62.3491 62.4222 62.9476 63.2101C63.5458 63.9981 63.7462 65.0182 63.4901 65.9739L60.9011 75.6363C60.4437 77.3434 58.6891 78.3565 56.9819 77.899L7.52654 64.6475C5.81947 64.1901 4.80638 62.4355 5.2638 60.7283L16.8589 17.4548C17.3163 15.7478 19.071 14.7347 20.7781 15.1921L33.6696 18.6464C33.5869 17.588 33.6797 16.4978 33.9701 15.414Z" fill="#091851"/>
</svg>
