<svg width="80" height="80" viewBox="0 0 80 80" fill="none" xmlns="http://www.w3.org/2000/svg">
<g clip-path="url(#clip0_293_3073)">
<path d="M27.0074 62.989L29.8669 52.317C30.9624 48.2287 34.9958 45.8595 40.1791 45.2822C37.529 43.3966 34.5033 41.9435 31.1771 41.0523C25.153 39.4381 19.0613 39.9131 13.6712 42.0328C14.343 50.7348 19.3291 58.6562 27.0074 62.989ZM58.4387 58.8997C57.6409 56.864 53.92 53.979 48.5942 52.552C42.1996 50.8386 36.7573 52.1022 36.242 54.0252L33.1672 65.5004C42.4924 67.9991 51.99 65.1788 58.4387 58.8997ZM32.6176 36.3137C36.5784 37.375 40.65 35.0242 41.7113 31.0634C42.7727 27.1024 40.4219 23.031 36.4611 21.9697C32.5001 20.9083 28.4287 23.2589 27.3673 27.2199C26.306 31.1808 28.6566 35.2523 32.6176 36.3137ZM50.7294 44.5831C54.2504 45.5266 57.8693 43.4372 58.8128 39.9162C59.7562 36.3953 57.6668 32.7763 54.1459 31.8329C50.6249 30.8895 47.006 32.9789 46.0625 36.4998C45.1191 40.0208 47.2085 43.6397 50.7294 44.5831ZM31.459 71.8755C13.8546 67.1585 3.40746 49.0632 8.1245 31.459C12.8416 13.8546 30.9367 3.40735 48.5411 8.12443C66.1453 12.8415 76.5927 30.9366 71.8756 48.541C67.1586 66.1452 49.0633 76.5926 31.459 71.8755Z" fill="#091851"/>
</g>
<defs>
<clipPath id="clip0_293_3073">
<rect width="80" height="80" fill="white"/>
</clipPath>
</defs>
</svg>
