<svg width="80" height="80" viewBox="0 0 80 80" fill="none" xmlns="http://www.w3.org/2000/svg">
<path d="M18.82 62.6449L2.03293 61.9203L9.79908 47.0199C8.67804 42.2162 8.69034 37.0745 10.0563 31.9766C14.4875 15.4392 31.486 5.62512 48.0234 10.0563C64.5607 14.4875 74.3749 31.486 69.9437 48.0234C65.5126 64.5607 48.5139 74.3749 31.9766 69.9437C26.8787 68.5777 22.4198 66.0177 18.82 62.6449ZM25.0282 35.9883C22.8126 44.257 27.7196 52.7563 35.9883 54.9719C44.257 57.1874 52.7563 52.2804 54.9719 44.0117L48.9831 42.407C47.6537 47.3684 42.5544 50.3125 37.593 48.9831C32.6316 47.6537 29.6875 42.5544 31.0169 37.593L25.0282 35.9883Z" fill="#091851"/>
</svg>
