<svg width="80" height="80" viewBox="0 0 80 80" fill="none" xmlns="http://www.w3.org/2000/svg">
<g clip-path="url(#clip0_247_1529)">
<path d="M31.7346 56.5552L21.8854 53.9161C22.0267 49.5623 18.6116 45.0524 17.4325 42.3674C15.0803 37.0111 14.4663 30.8482 16.0982 24.758C19.9099 10.5323 34.5323 2.09006 48.758 5.90184C62.9839 9.71364 71.426 24.3359 67.6142 38.5617C65.9815 44.6551 62.3652 49.6873 57.6464 53.1503C55.2844 54.8833 50.0767 57.079 48.0233 60.9197L38.1741 58.2806L42.4877 42.1818L36.0482 40.4564L31.7346 56.5552ZM46.1079 67.3083L45.2452 70.5281C44.2922 74.0846 40.6367 76.1951 37.0802 75.2421L24.2012 71.7912C20.6447 70.8382 18.5342 67.1828 19.4871 63.6262L20.3499 60.4065L46.1079 67.3083Z" fill="#091851"/>
</g>
<defs>
<clipPath id="clip0_247_1529">
<rect width="80" height="80" fill="white"/>
</clipPath>
</defs>
</svg>
