<svg width="80" height="80" viewBox="0 0 80 80" fill="none" xmlns="http://www.w3.org/2000/svg">
<g clip-path="url(#clip0_247_1528)">
<path d="M7.66051 34.8555L25.2083 39.5574C22.9759 50.1825 23.7368 60.8118 26.9545 70.5169C13.2489 64.4624 5.2074 49.7866 7.66051 34.8555ZM9.37719 28.4487C14.7183 14.2917 29.0203 5.60269 43.9169 7.21235C36.2778 14.0082 30.3041 22.8331 26.925 33.1506L9.37719 28.4487ZM73.1283 45.5308L55.5803 40.8288C57.8126 30.204 57.0519 19.5746 53.8342 9.86969C67.5398 15.924 75.5813 30.5998 73.1283 45.5308ZM71.4116 51.9375C66.0704 66.0948 51.7684 74.7837 36.8718 73.1742C44.5109 66.3782 50.4843 57.5534 53.8636 47.2355L71.4116 51.9375ZM31.6261 41.277L47.4459 45.5159C44.5076 54.2833 39.4556 61.8234 33.0197 67.7151C30.3919 59.3948 29.7871 50.339 31.6261 41.277ZM33.3427 34.8703C36.2811 26.1032 41.3328 18.5631 47.7686 12.6714C50.3964 20.9917 51.0015 30.0475 49.1626 39.1092L33.3427 34.8703Z" fill="#091851"/>
</g>
<defs>
<clipPath id="clip0_247_1528">
<rect width="80" height="80" fill="white"/>
</clipPath>
</defs>
</svg>
