<svg width="80" height="80" viewBox="0 0 80 80" fill="none" xmlns="http://www.w3.org/2000/svg">
<path d="M59.6711 14.094L70.2777 32.4652L59.4009 73.0578C58.9756 74.6452 57.3416 75.5864 55.7522 75.1605L9.34951 62.7269C7.75967 62.3009 6.82438 60.6362 7.24095 59.0816L21.2299 6.87408C21.6552 5.28682 23.2894 4.34555 24.8787 4.77139L59.6711 14.094ZM42.8466 48.2423L47.5358 56.3642L52.732 53.3639L48.0427 45.2423C51.8591 41.5009 52.8219 35.5199 50.026 30.6774C46.7122 24.9379 39.3733 22.9715 33.6338 26.2852C27.8943 29.5989 25.9278 36.9379 29.2415 42.6774C32.0372 47.52 37.6982 49.6767 42.8466 48.2423ZM42.6337 41.8736C39.764 43.5306 36.0946 42.5474 34.4376 39.6774C32.7808 36.8078 33.7641 33.1381 36.6338 31.4813C39.5037 29.8245 43.1731 30.8077 44.8298 33.6775C46.4869 36.5471 45.5036 40.2169 42.6337 41.8736Z" fill="#091851"/>
</svg>
